# xmcd
#
# Track frame offsets: 
#        150
#        4487
#        23970
#        46200
#        56632
#        75490
#        95932
#        105507
#        124595
#        147495
#        167884
#        190285
#        207487
#        233220
#        242027
#        262567
#        286047
#        310165
#
# Disc length: 4372 seconds
#
# Revision: 5
# Processed by: cddbd v1.5.2PL0 Copyright (c) Steve Scherf et al.
# Submitted via: ExactAudioCopy v0.95b4
#
DISCID=f8111212
DTITLE=NEXT - Rated Next
DYEAR=1997
DGENRE=R&B
TTITLE0=Intro
TTITLE1=Too Close
TTITLE2=Butta Love
TTITLE3=My Place (Interlude)
TTITLE4=Cozy
TTITLE5=Penetration (Feat. Naughty By Nature)
TTITLE6=You Are My High (Interlude)
TTITLE7=I Still Love You
TTITLE8=Stop, Drop and Roll
TTITLE9=Represent Me
TTITLE10=Next Experience (Feat. Adina Howard and Castro)
TTITLE11=Problems (Feat. Coffee Brown)
TTITLE12=Do You Think About Me
TTITLE13=Admit The Rat (Interlude)
TTITLE14=Sexitude
TTITLE15=Taste So Good
TTITLE16=Phone Sex
TTITLE17=Rock On
EXTD=YEAR: 1997 ID3G:  14
EXTT0=
EXTT1=
EXTT2=
EXTT3=
EXTT4=
EXTT5=
EXTT6=
EXTT7=
EXTT8=
EXTT9=
EXTT10=
EXTT11=
EXTT12=
EXTT13=
EXTT14=
EXTT15=
EXTT16=
EXTT17=
PLAYORDER=
